<svg xmlns="http://www.w3.org/2000/svg" viewBox="0 0 128 48" preserveAspectRatio="xMinYMid meet" fill="none">
  <path fill="url(#mitti-logo-gradient)" d="m120.341 38.92.158-.002c.541 0 .807.109.807.592 0 1.575-2.313 3.563-8.946 3.943L1.076 47.998c-.65.033-1.166-.431-1.063-.953.327-1.642 1.514-4.9 5.833-6.86 1.864-.848 3.978-1.268 6.114-1.268l108.381.002Zm-76.953.037c.004-.011.003-.024.005-.036-.003.011-.002.025-.005.036Z"/>
  <path fill="#1C1714" d="m69.176 14.826-3.327 18.85a1.805 1.805 0 0 1-1.777 1.492h-5.365a1.805 1.805 0 0 1-1.778-2.121l3.944-22.12a1.807 1.807 0 0 1 1.777-1.489h2.005a4.59 4.59 0 0 1 4.52 5.389ZM64.331 0l5.386.01c.778 0 1.303.533 1.175 1.19l-.893 4.542c-.128.656-.862 1.186-1.64 1.185l-5.386-.009c-.777 0-1.303-.533-1.174-1.19l.892-4.542C62.82.53 63.554 0 64.331 0Zm61.511 14.826-3.326 18.85a1.806 1.806 0 0 1-1.778 1.492h-5.365a1.804 1.804 0 0 1-1.777-2.121l3.943-22.12a1.806 1.806 0 0 1 1.778-1.489h2.005a4.59 4.59 0 0 1 4.52 5.389ZM120.999 0l5.386.01c.777 0 1.302.533 1.174 1.19l-.892 4.542c-.129.656-.863 1.186-1.64 1.185l-5.387-.009c-.777 0-1.302-.533-1.174-1.19l.892-4.542C119.486.53 120.221 0 120.999 0Zm-7.436 7.95h-5.325a.416.416 0 0 1-.4-.502l1.241-6.444c.101-.52-.286-1.004-.802-1.004h-.509a.805.805 0 0 0-.548.217L93.384 13.132c-.04.037-.102.097-.174.17-.146.146-.207.358-.216.591a1.565 1.565 0 0 0 1.55 1.624l2.558.009c.258 0 .45.242.4.501l-.548 2.797c-.574 2.97-.938 4.902-1.088 5.796-.152.894-.228 1.654-.228 2.277 0 2.543.778 4.558 2.333 6.041 1.554 1.486 4.455 2.228 8.001 2.228 3.545 0 3.62-1.414 4.002-3.376l.726-3.74c.101-.519-.285-1.004-.799-1.004h-2.234c-.957 0-1.691-.225-2.2-.678-.511-.45-.766-1.103-.766-1.956 0-.401.527-3.25 1.583-8.545a.414.414 0 0 1 .4-.338h3.059c1.948 0 3.624-1.417 4.003-3.384l.614-3.193c.1-.52-.286-1.004-.802-1.004l.003.002h.002Zm-21.958 0h-5.324a.416.416 0 0 1-.4-.502l1.24-6.444C87.222.484 86.836 0 86.32 0h-.51a.806.806 0 0 0-.547.217L71.426 13.132c-.04.037-.102.097-.174.17-.145.146-.207.358-.216.591a1.566 1.566 0 0 0 1.55 1.624l2.558.009c.258 0 .451.242.4.501l-.548 2.797c-.573 2.97-.938 4.902-1.087 5.796-.152.894-.228 1.654-.228 2.277 0 2.543.777 4.558 2.333 6.041 1.554 1.486 4.455 2.228 8 2.228s3.62-1.414 4.002-3.376l.727-3.74c.1-.519-.285-1.004-.8-1.004H85.71c-.958 0-1.691-.225-2.2-.678-.511-.45-.767-1.103-.767-1.956 0-.401.528-3.25 1.584-8.545a.415.415 0 0 1 .4-.338h3.058c1.949 0 3.625-1.417 4.003-3.384l.614-3.193c.1-.52-.285-1.004-.801-1.004l.002.002h.002ZM56.424.002h-8.287c-.545 0-1.047.295-1.31.773l-7.924 14.312h.025l-2.631 4.753-1.373 2.48-2.985-14.064-.571-2.69a6.724 6.724 0 0 0-.144-.558l-.804-3.789a1.532 1.532 0 0 0-1.5-1.217h-7.954a2.836 2.836 0 0 0-2.792 2.34l-1.19 6.707-1.675 8.94c-.08.568-1.09 5.934-3.028 16.098a.91.91 0 0 0 .903 1.081l5.046-.028a3.338 3.338 0 0 0 3.232-2.579L25.5 15.288l1.852 18.533c.077.766.72 1.35 1.49 1.35h4.72c3.317 0 4.297-3.093 4.61-3.698l8.374-16.087-1.021 4.384c-.34 1.74-.878 4.457-1.614 8.144l-.305 1.53-.418 2.092c-.125.627-.389 1.878-.523 2.547a.907.907 0 0 0 .888 1.086h6.1c1.615 0 3-1.158 3.287-2.748l5.428-30.098A1.973 1.973 0 0 0 56.424.002Z"/>
  <defs>
    <linearGradient id="mitti-logo-gradient" x1="0" x2="121.306" y1="43.459" y2="43.459" gradientUnits="userSpaceOnUse">
      <stop offset=".159" stop-color="#4A42C8"/>
      <stop offset=".476" stop-color="#00D1FF"/>
      <stop offset=".769" stop-color="#FFE8B0"/>
      <stop offset="1" stop-color="#FFC800"/>
    </linearGradient>
  </defs>
</svg>
